<?xml version="1.0" standalone="no"?>
<!DOCTYPE svg PUBLIC "-//W3C//DTD SVG 20010904//EN"
 "http://www.w3.org/TR/2001/REC-SVG-20010904/DTD/svg10.dtd">
<svg version="1.0" xmlns="http://www.w3.org/2000/svg"
 width="512.000000pt" height="512.000000pt" viewBox="0 0 512.000000 512.000000"
 preserveAspectRatio="xMidYMid meet">

<g transform="translate(0.000000,512.000000) scale(0.100000,-0.100000)"
fill="#000000" stroke="none">
<path d="M2395 5109 c-507 -69 -923 -414 -1081 -895 -50 -155 -67 -281 -61
-449 10 -269 75 -469 223 -692 61 -92 181 -223 258 -283 25 -19 45 -38 46 -41
0 -4 -24 -17 -52 -29 -687 -291 -1179 -909 -1303 -1638 -22 -131 -34 -351 -24
-444 28 -246 176 -452 404 -563 163 -80 58 -75 1755 -75 1697 0 1592 -5 1755
75 142 69 242 163 320 300 75 133 97 261 84 478 -22 358 -124 686 -310 994
-230 380 -597 696 -1016 873 -29 12 -53 25 -53 29 1 3 21 22 46 41 77 60 197
191 258 283 148 223 213 423 223 692 18 461 -199 877 -593 1141 -133 89 -302
157 -466 189 -102 20 -318 27 -413 14z m374 -410 c343 -79 600 -338 688 -694
25 -103 22 -315 -5 -416 -81 -302 -284 -531 -565 -639 -455 -175 -979 46
-1169 494 -55 127 -71 208 -71 356 -1 181 29 302 109 449 197 360 608 543
1013 450z m45 -2225 c135 -21 241 -48 354 -90 673 -250 1126 -867 1159 -1580
7 -154 -5 -205 -68 -284 -47 -60 -114 -100 -193 -117 -89 -18 -2923 -18 -3012
0 -79 17 -146 57 -193 117 -63 79 -75 130 -68 284 22 487 236 929 607 1254
194 169 468 315 710 378 210 54 501 70 704 38z"/>
</g>
</svg>
